<svg width="17" height="16" viewBox="0 0 17 16" fill="none" xmlns="http://www.w3.org/2000/svg">
<path d="M6.5 1.50409V2.49609H5.508V1.50409C5.508 1.22676 5.604 0.992094 5.796 0.800095C5.988 0.597427 6.22267 0.496094 6.5 0.496094H10.5C10.7773 0.496094 11.012 0.597427 11.204 0.800095C11.4067 0.992094 11.508 1.22676 11.508 1.50409V2.49609H10.5V1.50409H6.5ZM15.508 3.50409C15.7853 3.50409 16.02 3.60009 16.212 3.79209C16.404 3.98409 16.5 4.21876 16.5 4.49609V14.4961C16.5 14.7734 16.404 15.0081 16.212 15.2001C16.02 15.4028 15.7853 15.5041 15.508 15.5041H1.508C1.23067 15.5041 0.990667 15.4028 0.788 15.2001C0.596 15.0081 0.5 14.7734 0.5 14.4961V3.50409H15.508ZM15.508 4.49609H1.508V6.49609H15.508V4.49609ZM1.508 14.4961H15.508V7.50409H1.508V14.4961Z" fill="#141414"/>
</svg>
