<svg width="17" height="16" viewBox="0 0 17 16" fill="none" xmlns="http://www.w3.org/2000/svg">
<path d="M0.5 2.67188L16.5 2.70387V12.3359C16.5 12.6132 16.404 12.8479 16.212 13.0399C16.02 13.2319 15.7853 13.3279 15.508 13.3279H1.508C1.22 13.3279 0.98 13.2265 0.788 13.0239C0.596 12.8212 0.5 12.5919 0.5 12.3359V2.67188ZM15.508 6.33588H1.508V12.3359H15.508V6.33588ZM11.94 10.4959C12.1213 10.4959 12.276 10.5599 12.404 10.6879C12.5427 10.8159 12.612 10.9705 12.612 11.1519C12.612 11.3332 12.5427 11.4932 12.404 11.6319C12.276 11.7599 12.1213 11.8239 11.94 11.8239C11.7587 11.8239 11.604 11.7599 11.476 11.6319C11.348 11.4932 11.284 11.3332 11.284 11.1519C11.284 10.9705 11.348 10.8159 11.476 10.6879C11.604 10.5599 11.7587 10.4959 11.94 10.4959ZM14.164 10.4959C14.3453 10.4959 14.5 10.5599 14.628 10.6879C14.7667 10.8159 14.836 10.9705 14.836 11.1519C14.836 11.3332 14.7667 11.4932 14.628 11.6319C14.5 11.7599 14.3453 11.8239 14.164 11.8239C13.9827 11.8239 13.8227 11.7599 13.684 11.6319C13.556 11.4932 13.492 11.3332 13.492 11.1519C13.492 10.9705 13.556 10.8159 13.684 10.6879C13.8227 10.5599 13.9827 10.4959 14.164 10.4959ZM15.508 3.66387H1.508V4.46387H15.508V3.66387Z" fill="#141414"/>
</svg>
