<svg width="17" height="17" viewBox="0 0 17 17" fill="none" xmlns="http://www.w3.org/2000/svg">
<g id="icon/call">
<path id="Vector" d="M12.9501 16.4981C12.0541 16.4661 11.2114 16.2687 10.422 15.9061C9.53672 15.5434 8.62472 15.0261 7.68605 14.3541C6.75805 13.6927 5.85138 12.9247 4.96605 12.0501C4.08072 11.1647 3.30205 10.2527 2.63005 9.31407C1.96872 8.3754 1.45672 7.4634 1.09405 6.57807C0.678049 5.58607 0.480716 4.70607 0.502049 3.93807C0.534049 3.1594 0.779383 2.54073 1.23805 2.08207L2.32605 0.994067C2.50738 0.812734 2.72072 0.679401 2.96605 0.594068C3.21138 0.508734 3.46205 0.482067 3.71805 0.514068C3.97405 0.546068 4.20872 0.636735 4.42205 0.786068C4.64605 0.924734 4.82205 1.10607 4.95005 1.33007L7.06205 5.02607C7.25405 5.35673 7.32338 5.70873 7.27005 6.08207C7.22738 6.44473 7.07272 6.7594 6.80605 7.02607L6.07005 7.76207V7.81007C6.53938 8.38607 7.03005 8.9354 7.54205 9.45807C8.06472 9.97007 8.61405 10.4607 9.19005 10.9301H9.23805L9.97405 10.1941C10.2407 9.9274 10.5554 9.77273 10.918 9.73007C11.2914 9.67673 11.6434 9.74073 11.9741 9.92207L15.6701 12.0661C15.8941 12.1941 16.0754 12.3647 16.2141 12.5781C16.3634 12.7914 16.4541 13.0261 16.4861 13.2821C16.5181 13.5381 16.4914 13.7887 16.406 14.0341C16.3314 14.2794 16.2034 14.4927 16.0221 14.6741L14.9181 15.7621C14.6514 16.0074 14.3474 16.1941 14.0061 16.3221C13.6647 16.4501 13.3127 16.5087 12.9501 16.4981ZM3.49405 1.50607C3.31272 1.50607 3.15805 1.57007 3.03005 1.69807L1.94205 2.78607C1.64338 3.08473 1.49938 3.53273 1.51005 4.13007C1.52072 4.7274 1.68605 5.4154 2.00605 6.19407C2.35805 7.02607 2.84872 7.88473 3.47805 8.77007C4.10738 9.6554 4.83272 10.5141 5.65405 11.3461C6.48605 12.1674 7.34472 12.8927 8.23005 13.5221C9.11538 14.1514 9.97405 14.6421 10.8061 14.9941C11.5847 15.3141 12.2727 15.4794 12.8701 15.4901C13.4674 15.5007 13.9154 15.3567 14.2141 15.0581L15.3021 13.9541C15.4621 13.7941 15.5261 13.6127 15.4941 13.4101C15.4621 13.1861 15.35 13.0261 15.1581 12.9301L11.4621 10.7861C11.3341 10.7114 11.1954 10.6847 11.0461 10.7061C10.9074 10.7274 10.7847 10.7914 10.6781 10.8981L9.94205 11.6181C9.76072 11.8101 9.53672 11.9167 9.27005 11.9381C9.01405 11.9487 8.77938 11.8687 8.56605 11.6981C8.01138 11.2607 7.43538 10.7434 6.83805 10.1461C6.35805 9.66607 5.84072 9.0954 5.28605 8.43407C5.12605 8.22073 5.05138 7.98607 5.06205 7.73007C5.08338 7.4634 5.18472 7.2394 5.36605 7.05807L6.10205 6.32207C6.20872 6.2154 6.26738 6.09273 6.27805 5.95407C6.29938 5.80473 6.27272 5.66073 6.19805 5.52207L4.07005 1.82607C4.01672 1.74073 3.94738 1.6714 3.86205 1.61807C3.78738 1.55407 3.69672 1.51673 3.59005 1.50607H3.49405Z" fill="#141414"/>
</g>
</svg>
