<svg width="16" height="17" viewBox="0 0 16 17" fill="none" xmlns="http://www.w3.org/2000/svg">
<path d="M5.44807 16.068L13.0001 8.5L5.44807 0.932C5.1494 0.644 4.79207 0.5 4.37607 0.5C3.97074 0.5 3.61874 0.649333 3.32007 0.948C3.0214 1.236 2.87207 1.588 2.87207 2.004C2.87207 2.40933 3.0214 2.76133 3.32007 3.06L8.76007 8.5L3.32007 13.94C3.1814 14.0787 3.07474 14.2387 3.00007 14.42C2.9254 14.612 2.88807 14.804 2.88807 14.996C2.88807 15.4013 3.03207 15.7533 3.32007 16.052C3.61874 16.3507 3.97074 16.5 4.37607 16.5C4.79207 16.5 5.1494 16.356 5.44807 16.068Z" fill="#D2D2D2"/>
</svg>
