<svg width="16" height="17" viewBox="0 0 16 17" fill="none" xmlns="http://www.w3.org/2000/svg">
<g id="icon/transportation">
<path id="Vector" d="M7.95979 0.5C9.11179 0.5 10.1838 0.574667 11.1758 0.724C12.2531 0.884 13.1011 1.11333 13.7198 1.412C14.4025 1.74267 14.7438 2.13733 14.7438 2.596V3.908H15.5118V8.036H14.7438V12.42C14.7438 12.708 14.6851 12.9853 14.5678 13.252C14.4611 13.508 14.3065 13.7373 14.1038 13.94V14.932C14.1038 15.22 14.0345 15.4813 13.8958 15.716C13.7571 15.9613 13.5651 16.1533 13.3198 16.292C13.0851 16.4307 12.8238 16.5 12.5358 16.5H12.3598C12.0718 16.5 11.8051 16.4307 11.5598 16.292C11.3251 16.1533 11.1331 15.9613 10.9838 15.716C10.8451 15.4813 10.7758 15.22 10.7758 14.932V14.564H5.15979V14.932C5.15979 15.22 5.08513 15.4813 4.93579 15.716C4.79713 15.9613 4.60513 16.1533 4.35979 16.292C4.12513 16.4307 3.86379 16.5 3.57579 16.5H3.39979C3.11179 16.5 2.84513 16.4307 2.59979 16.292C2.36513 16.1533 2.17846 15.9613 2.03979 15.716C1.90113 15.4813 1.83179 15.22 1.83179 14.932V13.94C1.62913 13.7373 1.46913 13.508 1.35179 13.252C1.24513 12.9853 1.19179 12.708 1.19179 12.42V8.036H0.487793V3.908H1.19179V2.596C1.19179 2.13733 1.53313 1.74267 2.21579 1.412C2.83446 1.11333 3.68246 0.884 4.75979 0.724C5.75179 0.574667 6.81846 0.5 7.95979 0.5ZM7.95979 1.268C7.03179 1.268 6.16246 1.316 5.35179 1.412C4.65846 1.508 4.03446 1.63067 3.47979 1.78C2.99979 1.91867 2.62113 2.06267 2.34379 2.212C2.08779 2.36133 1.95979 2.48933 1.95979 2.596V4.676H1.25579V7.268H1.55979L1.62379 7.284L1.95979 7.332V12.42C1.95979 12.6227 2.00246 12.82 2.08779 13.012C2.17313 13.1933 2.29579 13.348 2.45579 13.476L2.59979 13.588V14.932C2.59979 15.156 2.67446 15.3427 2.82379 15.492C2.98379 15.652 3.17579 15.732 3.39979 15.732H3.57579C3.79979 15.732 3.98646 15.652 4.13579 15.492C4.29579 15.3427 4.37579 15.156 4.37579 14.932V13.796H11.5598V14.932C11.5598 15.1453 11.6345 15.332 11.7838 15.492C11.9438 15.652 12.1358 15.732 12.3598 15.732H12.5358C12.7598 15.7213 12.9465 15.636 13.0958 15.476C13.2558 15.3267 13.3358 15.1453 13.3358 14.932V13.588L13.4638 13.476C13.6238 13.348 13.7465 13.1933 13.8318 13.012C13.9278 12.82 13.9758 12.6227 13.9758 12.42V7.268H14.7278V4.676H13.9758V2.596C13.9758 2.48933 13.8478 2.36133 13.5918 2.212C13.3145 2.06267 12.9358 1.91867 12.4558 1.78C11.9011 1.63067 11.2718 1.508 10.5678 1.412C9.75713 1.316 8.88779 1.268 7.95979 1.268ZM12.5038 11.348C12.7171 11.4333 12.8878 11.5773 13.0158 11.78C13.1545 11.9827 13.2238 12.2013 13.2238 12.436C13.2238 12.756 13.1065 13.028 12.8718 13.252C12.6478 13.476 12.3758 13.588 12.0558 13.588C11.8211 13.588 11.6025 13.524 11.3998 13.396C11.2078 13.268 11.0691 13.0973 10.9838 12.884C10.8985 12.66 10.8771 12.436 10.9198 12.212C10.9625 11.9773 11.0691 11.7747 11.2398 11.604C11.4105 11.4333 11.6078 11.3267 11.8318 11.284C12.0665 11.2413 12.2905 11.2627 12.5038 11.348ZM4.32779 11.348C4.54113 11.444 4.71179 11.5933 4.83979 11.796C4.97846 11.988 5.04779 12.2013 5.04779 12.436C5.04779 12.756 4.93046 13.028 4.69579 13.252C4.47179 13.476 4.19979 13.588 3.87979 13.588C3.63446 13.588 3.41579 13.524 3.22379 13.396C3.03179 13.268 2.88779 13.0973 2.79179 12.884C2.70646 12.66 2.68513 12.436 2.72779 12.212C2.77046 11.9773 2.87713 11.7747 3.04779 11.604C3.21846 11.4333 3.41579 11.3267 3.63979 11.284C3.87446 11.2413 4.10379 11.2627 4.32779 11.348ZM3.87979 12.036C3.77313 12.036 3.67713 12.0733 3.59179 12.148C3.51713 12.2227 3.47979 12.3187 3.47979 12.436C3.47979 12.5427 3.51713 12.6387 3.59179 12.724C3.67713 12.7987 3.77313 12.836 3.87979 12.836C3.98646 12.836 4.07713 12.7987 4.15179 12.724C4.22646 12.6387 4.26379 12.5427 4.26379 12.436C4.26379 12.3187 4.22646 12.2227 4.15179 12.148C4.07713 12.0733 3.98646 12.036 3.87979 12.036ZM12.0558 12.036C11.9811 12.036 11.9065 12.0573 11.8318 12.1C11.7678 12.1427 11.7198 12.2013 11.6878 12.276C11.6345 12.4467 11.6665 12.5907 11.7838 12.708C11.8371 12.7613 11.9011 12.7987 11.9758 12.82C12.0611 12.8413 12.1411 12.836 12.2158 12.804C12.2905 12.772 12.3491 12.724 12.3918 12.66C12.4345 12.5853 12.4558 12.5053 12.4558 12.42C12.4558 12.3347 12.4185 12.244 12.3438 12.148C12.2478 12.0733 12.1518 12.036 12.0558 12.036ZM12.2958 3.908C12.6691 3.908 12.9891 4.04133 13.2558 4.308C13.5225 4.57467 13.6558 4.89467 13.6558 5.268V9.46C13.6558 9.83333 13.5225 10.1533 13.2558 10.42C12.9891 10.6867 12.6691 10.82 12.2958 10.82H3.63979C3.26646 10.82 2.94646 10.6867 2.67979 10.42C2.41313 10.1533 2.27979 9.83333 2.27979 9.46V5.268C2.27979 4.89467 2.41313 4.57467 2.67979 4.308C2.94646 4.04133 3.26646 3.908 3.63979 3.908H12.2958ZM12.2958 4.676H3.63979C3.47979 4.676 3.34113 4.73467 3.22379 4.852C3.10646 4.96933 3.04779 5.108 3.04779 5.268V9.46C3.04779 9.62 3.10646 9.75867 3.22379 9.876C3.34113 9.99333 3.47979 10.052 3.63979 10.052H12.2958C12.4558 10.052 12.5945 9.99333 12.7118 9.876C12.8291 9.75867 12.8878 9.62 12.8878 9.46V5.268C12.8878 5.108 12.8291 4.96933 12.7118 4.852C12.5945 4.73467 12.4558 4.676 12.2958 4.676ZM10.0398 2.1V3.188H5.67179V2.1H10.0398Z" fill="#141414"/>
</g>
</svg>
