<svg width="17" height="17" viewBox="0 0 17 17" fill="none" xmlns="http://www.w3.org/2000/svg">
<path d="M12.9959 1.492H14.0039C14.2812 1.492 14.5159 1.59333 14.7079 1.796C14.8999 1.988 14.9959 2.22267 14.9959 2.5V15.508C14.9959 15.7747 14.8999 16.004 14.7079 16.196C14.5159 16.3987 14.2812 16.5 14.0039 16.5H2.99591C2.72924 16.5 2.49457 16.3987 2.29191 16.196C2.09991 16.004 2.00391 15.7747 2.00391 15.508V2.5C2.00391 2.22267 2.09991 1.988 2.29191 1.796C2.48391 1.59333 2.71857 1.492 2.99591 1.492H4.00391V2.5H2.99591V15.508H14.0039V2.5H12.9959V1.492ZM6.00391 1.492V0.5H10.9959V1.492H6.00391ZM5.45991 10.5H11.5399C11.6572 10.5 11.7639 10.548 11.8599 10.644C11.9559 10.74 12.0039 10.8573 12.0039 10.996C12.0039 11.1347 11.9559 11.252 11.8599 11.348C11.7639 11.444 11.6572 11.492 11.5399 11.492H5.45991C5.34257 11.492 5.23591 11.444 5.13991 11.348C5.04391 11.252 4.99591 11.1347 4.99591 10.996C4.99591 10.8573 5.04391 10.74 5.13991 10.644C5.23591 10.548 5.34257 10.5 5.45991 10.5ZM5.45991 6.5H11.5399C11.6572 6.5 11.7639 6.548 11.8599 6.644C11.9559 6.74 12.0039 6.85733 12.0039 6.996C12.0039 7.13467 11.9559 7.252 11.8599 7.348C11.7639 7.444 11.6572 7.492 11.5399 7.492H5.45991C5.34257 7.492 5.23591 7.444 5.13991 7.348C5.04391 7.252 4.99591 7.13467 4.99591 6.996C4.99591 6.85733 5.04391 6.74 5.13991 6.644C5.23591 6.548 5.34257 6.5 5.45991 6.5Z" fill="#141414"/>
</svg>
