<svg width="12" height="12" viewBox="0 0 12 12" fill="none" xmlns="http://www.w3.org/2000/svg">
<path d="M0.751648 4.85526L1.09 4.48713L0.751647 4.85526C0.591328 4.70791 0.5 4.50813 0.5 4.28493C0.5 4.06172 0.591328 3.86195 0.751647 3.71459C0.910137 3.56892 1.10672 3.5 1.31 3.5C1.51328 3.5 1.70986 3.56892 1.86835 3.71459L6 7.51206L10.1316 3.71459C10.2901 3.56892 10.4867 3.5 10.69 3.5C10.8933 3.5 11.0899 3.56892 11.2484 3.71459C11.4087 3.86194 11.5 4.06172 11.5 4.28493C11.5 4.50813 11.4087 4.70791 11.2484 4.85526L10.91 4.48713L11.2484 4.85526L6.33835 9.36813L6 9.67911L5.66165 9.36813L0.751648 4.85526Z" fill="#141414" stroke="#141414"/>
</svg>
