<svg width="20" height="20" viewBox="0 0 20 20" fill="none" xmlns="http://www.w3.org/2000/svg">
<path d="M13.24 12.34L20 19.1L19.1 20L12.34 13.22C11.6867 13.7933 10.94 14.2333 10.1 14.54C9.27333 14.8467 8.40667 15 7.5 15C6.14 15 4.88 14.66 3.72 13.98C2.58667 13.3133 1.68667 12.4133 1.02 11.28C0.34 10.12 0 8.86 0 7.5C0 6.14 0.34 4.88 1.02 3.72C1.68667 2.58667 2.58667 1.68667 3.72 1.02C4.88 0.34 6.14 0 7.5 0C8.86 0 10.12 0.34 11.28 1.02C12.4133 1.68667 13.3133 2.58667 13.98 3.72C14.66 4.88 15 6.14 15 7.5C15 8.40667 14.8467 9.27333 14.54 10.1C14.2333 10.9267 13.8 11.6733 13.24 12.34ZM7.52 13.76C8.65333 13.76 9.7 13.4733 10.66 12.9C11.6067 12.3533 12.3533 11.6067 12.9 10.66C13.4733 9.7 13.76 8.65333 13.76 7.52C13.76 6.38667 13.4733 5.33333 12.9 4.36C12.3533 3.41333 11.6067 2.66667 10.66 2.12C9.7 1.54667 8.65333 1.26 7.52 1.26C6.38667 1.26 5.33333 1.54667 4.36 2.12C3.41333 2.66667 2.66667 3.41333 2.12 4.36C1.54667 5.33333 1.26 6.38667 1.26 7.52C1.26 8.65333 1.54667 9.7 2.12 10.66C2.66667 11.6067 3.41333 12.3533 4.36 12.9C5.33333 13.4733 6.38667 13.76 7.52 13.76Z" fill="#E8E8E8"/>
</svg>
