<svg width="44" height="44" viewBox="0 0 44 44" fill="none" xmlns="http://www.w3.org/2000/svg">
<circle cx="22" cy="22" r="22" fill="#464646"/>
<path d="M22.5456 15.312L28.6176 21.3664C28.7232 21.472 28.8523 21.5248 29.0048 21.5248C29.1573 21.5248 29.2864 21.472 29.392 21.3664C29.4976 21.2608 29.5504 21.1317 29.5504 20.9792C29.5504 20.8266 29.4976 20.6976 29.392 20.592L22 13.2L14.608 20.592C14.5024 20.6976 14.4496 20.8266 14.4496 20.9792C14.4496 21.1317 14.5024 21.2608 14.608 21.3664C14.7136 21.472 14.8427 21.5248 14.9952 21.5248C15.1477 21.5248 15.2768 21.472 15.3824 21.3664L21.4544 15.312V30.2544C21.4544 30.4069 21.5072 30.536 21.6128 30.6416C21.7184 30.7472 21.8475 30.8 22 30.8C22.1525 30.8 22.2816 30.7472 22.3872 30.6416C22.4928 30.536 22.5456 30.4069 22.5456 30.2544V15.312Z" fill="white"/>
</svg>
