<svg width="24" height="24" viewBox="0 0 24 24" fill="none" xmlns="http://www.w3.org/2000/svg">
<path d="M12.009 10.488C11.193 10.488 10.441 10.288 9.753 9.88804C9.065 9.48804 8.521 8.94404 8.121 8.25604C7.721 7.56804 7.521 6.81604 7.521 6.00004C7.521 5.18404 7.721 4.43204 8.121 3.74404C8.521 3.04004 9.065 2.48804 9.753 2.08804C10.441 1.68804 11.193 1.48804 12.009 1.48804C12.825 1.48804 13.577 1.69604 14.265 2.11204C14.953 2.51204 15.497 3.05604 15.897 3.74404C16.313 4.43204 16.521 5.18404 16.521 6.00004C16.521 6.81604 16.321 7.56804 15.921 8.25604C15.521 8.94404 14.969 9.48804 14.265 9.88804C13.577 10.288 12.825 10.488 12.009 10.488ZM12.009 13.488C13.689 13.488 15.297 13.712 16.833 14.16C18.321 14.576 19.641 15.176 20.793 15.96C21.961 16.728 22.889 17.624 23.577 18.648C23.913 19.16 24.049 19.72 23.985 20.328C23.937 20.936 23.713 21.448 23.313 21.864C22.913 22.296 22.433 22.512 21.873 22.512H2.145C1.585 22.512 1.105 22.296 0.705 21.864C0.305 21.448 0.073 20.936 0.009 20.328C-0.039 19.72 0.105 19.16 0.441 18.648C1.129 17.624 2.057 16.728 3.225 15.96C4.393 15.176 5.713 14.576 7.185 14.16C8.721 13.712 10.329 13.488 12.009 13.488Z" fill="#D2D2D2"/>
</svg>
