<svg width="24" height="24" viewBox="0 0 24 24" fill="none" xmlns="http://www.w3.org/2000/svg">
<path d="M2.88 11.256L11.136 2.97598C11.28 2.83198 11.352 2.65598 11.352 2.44798C11.352 2.23998 11.28 2.06398 11.136 1.91998C10.992 1.77598 10.816 1.70398 10.608 1.70398C10.4 1.70398 10.224 1.77598 10.08 1.91998L0 12L10.08 22.08C10.224 22.224 10.4 22.296 10.608 22.296C10.816 22.296 10.992 22.224 11.136 22.08C11.28 21.936 11.352 21.76 11.352 21.552C11.352 21.344 11.28 21.168 11.136 21.024L2.88 12.744H23.256C23.464 12.744 23.64 12.672 23.784 12.528C23.928 12.384 24 12.208 24 12C24 11.792 23.928 11.616 23.784 11.472C23.64 11.328 23.464 11.256 23.256 11.256H2.88Z" fill="#141414"/>
</svg>
