<svg width="42" height="42" viewBox="0 0 42 42" fill="none" xmlns="http://www.w3.org/2000/svg">
<circle cx="21" cy="21" r="20.5" stroke="#E8E8E8"/>
<path d="M27.17 13.4399H25.83C24.82 13.4399 24 14.2599 24 15.2699V15.7199L14.5 17.7599V17.2499C14.5 16.8399 14.16 16.4999 13.75 16.4999C13.34 16.4999 13 16.8399 13 17.2499V24.2499C13 24.6599 13.34 24.9999 13.75 24.9999C14.16 24.9999 14.5 24.6599 14.5 24.2499V23.6199L24 25.6599V26.1099C24 27.1199 24.82 27.9399 25.83 27.9399H27.17C28.18 27.9399 29 27.1199 29 26.1099V15.2699C29 14.2599 28.18 13.4399 27.17 13.4399ZM14.5 22.0799V19.2899L24 17.2499V24.1199L14.5 22.0799ZM27.5 26.1099C27.5 26.2899 27.35 26.4399 27.17 26.4399H25.83C25.65 26.4399 25.5 26.2899 25.5 26.1099V15.2699C25.5 15.0899 25.65 14.9399 25.83 14.9399H27.17C27.35 14.9399 27.5 15.0899 27.5 15.2699V26.1099ZM21.97 26.6299C21.7899 27.1957 21.4336 27.689 20.9533 28.038C20.473 28.387 19.8937 28.5734 19.3 28.5699C17.76 28.5699 16.5 27.3299 16.5 25.8199C16.5 25.7099 16.5 25.5899 16.52 25.4799C16.57 25.0699 16.95 24.7799 17.36 24.8299C17.77 24.8799 18.06 25.2499 18.01 25.6599V25.8099C18.01 26.4999 18.59 27.0599 19.31 27.0599C19.88 27.0599 20.38 26.6999 20.55 26.1699C20.67 25.7699 21.1 25.5499 21.49 25.6799C21.89 25.7999 22.1 26.2299 21.98 26.6199L21.97 26.6299Z" fill="#141414"/>
</svg>
