<svg width="19" height="18" viewBox="0 0 19 18" fill="none" xmlns="http://www.w3.org/2000/svg">
<path d="M9.56069 2.645C8.32569 2.645 7.31819 3.6625 7.31819 4.9125C7.31819 6.1625 8.32319 7.18 9.56069 7.18C10.7982 7.18 11.8032 6.1625 11.8032 4.9125C11.8032 3.6625 10.7982 2.645 9.56069 2.645ZM9.56069 12.0925C6.49569 12.0925 3.70569 13.1625 2.45069 14.82C2.35069 14.9525 2.37819 15.08 2.42069 15.165C2.45569 15.2375 2.54069 15.3575 2.72319 15.3575H16.3982C16.5782 15.3575 16.6657 15.2375 16.7007 15.165C16.7432 15.08 16.7707 14.9525 16.6707 14.82C15.4182 13.1625 12.6282 12.0925 9.56319 12.0925M9.56319 1.5C11.4282 1.5 12.9382 3.0275 12.9382 4.9125C12.9382 6.7975 11.4282 8.325 9.56319 8.325C7.69819 8.325 6.18819 6.7975 6.18819 4.9125C6.18819 3.0275 7.69819 1.5 9.56319 1.5ZM9.56319 10.9475C13.1007 10.9475 16.1532 12.2475 17.5732 14.125C18.3082 15.095 17.6107 16.5 16.4007 16.5H2.72319C1.51319 16.5 0.815687 15.095 1.55069 14.125C2.97069 12.2475 6.02319 10.9475 9.56069 10.9475H9.56319Z" fill="#7D7D7D"/>
</svg>
