<svg width="48" height="48" viewBox="0 0 48 48" fill="none" xmlns="http://www.w3.org/2000/svg">
<path d="M24.4972 20.0416L33.9917 20.0444V18.7944L24.4972 18.7916V20.0416Z" fill="#141414"/>
<path d="M24.5056 29.5694H34V28.3194H24.5056V29.5694Z" fill="#141414"/>
<path fill-rule="evenodd" clip-rule="evenodd" d="M20.8694 16.9166H15.8722V21.9194H20.8694V16.9166ZM21.4944 15.6666C21.8389 15.6666 22.1194 15.9472 22.1194 16.2916V22.5444C22.1194 22.8888 21.8389 23.1694 21.4944 23.1694H15.2472C14.9028 23.1694 14.6222 22.8888 14.6222 22.5444V16.2916C14.6222 15.9472 14.9028 15.6666 15.2472 15.6666H21.4944Z" fill="#141414"/>
<path d="M16.8806 30.5638L14.8833 28.5666L14 29.45L16.8833 32.3333L22.7583 26.4388L21.8722 25.5555L16.8806 30.5638Z" fill="#141414"/>
<rect x="0.5" y="0.5" width="47" height="47" rx="9.5" stroke="#E8E8E8"/>
</svg>
