<svg width="24" height="24" viewBox="0 0 24 24" fill="none" xmlns="http://www.w3.org/2000/svg">
<g clip-path="url(#clip0_852_3612)">
<path fill-rule="evenodd" clip-rule="evenodd" d="M23.0053 4.81172H17.0072V4.31478C17.0057 3.91826 16.8469 3.53853 16.5658 3.25894C16.2846 2.97935 15.904 2.82274 15.5074 2.82349H8.47119C8.07467 2.82274 7.69404 2.97935 7.41286 3.25894C7.13168 3.53853 6.97292 3.91826 6.97143 4.31478V4.81172H0.970956C0.905511 4.81154 0.840671 4.82425 0.780137 4.84912C0.719603 4.87399 0.664561 4.91054 0.618153 4.95669C0.571746 5.00284 0.534882 5.05767 0.509666 5.11806C0.48445 5.17845 0.471377 5.24322 0.471191 5.30867V11.2734C0.471377 11.3388 0.48445 11.4036 0.509666 11.464C0.534882 11.5244 0.571746 11.5792 0.618153 11.6253C0.664561 11.6715 0.719603 11.708 0.780137 11.7329C0.840671 11.7578 0.905511 11.7705 0.970956 11.7703V19.8174C0.975353 20.0738 1.03085 20.3269 1.1342 20.5617C1.23755 20.7964 1.38668 21.0082 1.57286 21.1847C1.75904 21.3612 1.97854 21.4987 2.21852 21.5893C2.4585 21.6799 2.71414 21.7218 2.97049 21.7124H21.0058C21.2621 21.7218 21.5178 21.6799 21.7577 21.5893C21.9977 21.4987 22.2172 21.3612 22.4034 21.1847C22.5896 21.0082 22.7387 20.7964 22.8421 20.5617C22.9454 20.3269 23.0009 20.0738 23.0053 19.8174V11.7703C23.0708 11.7705 23.1356 11.7578 23.1961 11.7329C23.2567 11.708 23.3117 11.6715 23.3581 11.6253C23.4045 11.5792 23.4414 11.5244 23.4666 11.464C23.4918 11.4036 23.5049 11.3388 23.5051 11.2734V5.30867C23.5049 5.24322 23.4918 5.17845 23.4666 5.11806C23.4414 5.05767 23.4045 5.00284 23.3581 4.95669C23.3117 4.91054 23.2567 4.87399 23.1961 4.84912C23.1356 4.82425 23.0708 4.81154 23.0053 4.81172ZM7.96908 4.31478C7.96932 4.24916 7.98251 4.18422 8.0079 4.12371C8.03328 4.06319 8.07036 4.00827 8.11701 3.96211C8.16365 3.91595 8.21895 3.87944 8.27972 3.85468C8.3405 3.82993 8.40557 3.81741 8.47119 3.81784H15.5074C15.6396 3.81759 15.7664 3.86978 15.8601 3.96295C15.9538 4.05611 16.0067 4.18265 16.0072 4.31478V4.81172H7.96908V4.31478ZM1.47072 11.2734V5.80561H22.506V11.2734H1.47072ZM20.506 20.7171H3.47025V11.7703H11.4886V12.7642C11.4886 12.8968 11.5413 13.024 11.6351 13.1177C11.7288 13.2115 11.856 13.2642 11.9886 13.2642C12.1212 13.2642 12.2484 13.2115 12.3422 13.1177C12.4359 13.024 12.4886 12.8968 12.4886 12.7642V11.7703H20.506V20.7176V20.7171ZM1.97096 19.8164V11.7694H2.97049V20.7176C2.84481 20.7281 2.71831 20.7127 2.59881 20.6725C2.4793 20.6322 2.36932 20.5678 2.27565 20.4834C2.18199 20.3989 2.10663 20.2962 2.05422 20.1815C2.00181 20.0668 1.97348 19.9425 1.97096 19.8164ZM22.0058 19.8164C22.0032 19.9425 21.9748 20.0667 21.9224 20.1813C21.8699 20.296 21.7946 20.3987 21.7009 20.4831C21.6073 20.5675 21.4973 20.6318 21.3778 20.672C21.2583 20.7123 21.1319 20.7276 21.0063 20.7171V11.7703H22.0058V19.8174V19.8164Z" fill="#D03752"/>
</g>
<defs>
<clipPath id="clip0_852_3612">
<rect width="24" height="24" fill="white" transform="translate(0.000488281)"/>
</clipPath>
</defs>
</svg>
