<svg width="18" height="21" viewBox="0 0 18 21" fill="none" xmlns="http://www.w3.org/2000/svg">
<path d="M2.58587 10.2944L7.94232 15.6354L7.94232 1.558C7.94232 1.27257 8.04677 1.01244 8.25077 0.808447L8.60432 1.162L8.25077 0.808446C8.45476 0.604456 8.71489 0.5 9.00032 0.5C9.28575 0.5 9.54588 0.604456 9.74987 0.808446L9.39632 1.162L9.74987 0.808447C9.95387 1.01244 10.0583 1.27257 10.0583 1.558L10.0583 15.6354L15.4148 10.2944C15.4148 10.2944 15.4149 10.2943 15.415 10.2942C15.6189 10.0904 15.879 9.986 16.1643 9.986C16.4497 9.986 16.7099 10.0905 16.9139 10.2944C17.1179 10.4984 17.2223 10.7586 17.2223 11.044C17.2223 11.3294 17.1179 11.5896 16.9139 11.7936L9.35387 19.3536L9.00032 19.7071L8.64677 19.3536L1.08677 11.7936C0.882775 11.5896 0.77832 11.3294 0.77832 11.044C0.77832 10.7586 0.882775 10.4984 1.08677 10.2944C1.29076 10.0905 1.55089 9.986 1.83632 9.986C2.12161 9.986 2.38162 10.0903 2.58557 10.2941C2.58567 10.2942 2.58577 10.2943 2.58587 10.2944Z" fill="#7D7D7D" stroke="#7D7D7D"/>
</svg>
