<svg width="14" height="12" viewBox="0 0 14 12" fill="none" xmlns="http://www.w3.org/2000/svg">
<path d="M12.892 4.108L13.2456 4.46155L7.35355 10.3536L7 10.7071L6.64645 10.3536L0.754447 4.46155C0.586455 4.29356 0.5 4.07743 0.5 3.844C0.5 3.61057 0.586455 3.39444 0.754447 3.22645C0.922439 3.05845 1.13857 2.972 1.372 2.972C1.60543 2.972 1.82156 3.05845 1.98955 3.22645L7 8.23689L12.0104 3.22645L12.364 3.58L12.0104 3.22645C12.1784 3.05846 12.3946 2.972 12.628 2.972C12.8614 2.972 13.0776 3.05846 13.2456 3.22645L12.892 3.58L13.2456 3.22645C13.4135 3.39444 13.5 3.61057 13.5 3.844C13.5 4.07743 13.4135 4.29356 13.2456 4.46155L12.892 4.108Z" fill="#141414" stroke="#141414"/>
</svg>
