<svg width="12" height="12" viewBox="0 0 12 12" fill="none" xmlns="http://www.w3.org/2000/svg">
<path d="M6 12C6.608 12 7.184 11.864 7.728 11.592C8.248 11.328 8.692 10.964 9.06 10.5H2.952C3.312 10.964 3.752 11.328 4.272 11.592C4.816 11.864 5.392 12 6 12ZM11.556 6.756L10.656 6.336L9.336 2.736C9.28 2.592 9.184 2.476 9.048 2.388C8.92 2.292 8.78 2.244 8.628 2.244H8.256C8.256 1.836 8.152 1.46 7.944 1.116C7.744 0.772 7.472 0.5 7.128 0.3C6.784 0.0999999 6.408 0 6 0C5.592 0 5.216 0.0999999 4.872 0.3C4.528 0.5 4.256 0.772 4.056 1.116C3.856 1.46 3.756 1.836 3.756 2.244H3.372C3.22 2.244 3.076 2.292 2.94 2.388C2.812 2.476 2.72 2.592 2.664 2.736L1.344 6.336L0.444 6.756C0.308 6.812 0.2 6.904 0.12 7.032C0.04 7.152 0 7.284 0 7.428V9H12V7.428C12 7.284 11.96 7.152 11.88 7.032C11.8 6.904 11.692 6.812 11.556 6.756ZM5.256 2.244C5.256 2.036 5.328 1.86 5.472 1.716C5.624 1.572 5.8 1.5 6 1.5C6.208 1.5 6.384 1.572 6.528 1.716C6.68 1.86 6.756 2.036 6.756 2.244H5.256Z" fill="#AFAFAF"/>
</svg>
