<svg width="12" height="12" viewBox="0 0 12 12" fill="none" xmlns="http://www.w3.org/2000/svg">
<path d="M6 12C5.184 12 4.404 11.844 3.66 11.532C2.948 11.228 2.312 10.796 1.752 10.236C1.2 9.684 0.772 9.052 0.468 8.34C0.156 7.596 0 6.816 0 6C0 5.184 0.156 4.404 0.468 3.66C0.772 2.948 1.2 2.316 1.752 1.764C2.312 1.204 2.948 0.772 3.66 0.468C4.404 0.156 5.184 0 6 0C6.816 0 7.596 0.156 8.34 0.468C9.052 0.772 9.684 1.204 10.236 1.764C10.796 2.316 11.228 2.948 11.532 3.66C11.844 4.404 12 5.184 12 6C12 6.816 11.844 7.596 11.532 8.34C11.228 9.052 10.796 9.684 10.236 10.236C9.684 10.796 9.052 11.228 8.34 11.532C7.596 11.844 6.816 12 6 12ZM6 0.744C5.056 0.744 4.176 0.984 3.36 1.464C2.568 1.928 1.94 2.556 1.476 3.348C0.996 4.164 0.756 5.048 0.756 6C0.756 6.952 0.996 7.836 1.476 8.652C1.94 9.444 2.568 10.072 3.36 10.536C4.176 11.016 5.056 11.256 6 11.256C6.952 11.256 7.836 11.016 8.652 10.536C9.444 10.072 10.072 9.444 10.536 8.652C11.016 7.836 11.256 6.952 11.256 6C11.256 5.048 11.016 4.164 10.536 3.348C10.072 2.556 9.444 1.928 8.652 1.464C7.836 0.984 6.952 0.744 6 0.744ZM5.628 9V5.244H6.372V9H5.628ZM6 3.744C5.896 3.744 5.808 3.708 5.736 3.636C5.664 3.564 5.628 3.476 5.628 3.372C5.628 3.268 5.664 3.18 5.736 3.108C5.808 3.036 5.896 3 6 3C6.104 3 6.192 3.036 6.264 3.108C6.336 3.18 6.372 3.268 6.372 3.372C6.372 3.476 6.336 3.564 6.264 3.636C6.192 3.708 6.104 3.744 6 3.744Z" fill="#C52A1A"/>
</svg>
