<svg width="24" height="24" viewBox="0 0 24 24" fill="none" xmlns="http://www.w3.org/2000/svg">
<g clip-path="url(#clip0_852_3610)">
<path fill-rule="evenodd" clip-rule="evenodd" d="M20.8527 3H2.99761C1.78114 3 0.791026 3.56047 0.791026 4.78824V17.4758C0.789272 18.0633 1.02059 18.6275 1.43424 19.0447C1.8479 19.4618 2.41012 19.6979 2.99761 19.7012H20.8527C21.4402 19.6979 22.0024 19.4618 22.416 19.0447C22.8297 18.6275 23.061 18.0633 23.0593 17.4758V4.78824C23.0593 3.56047 22.071 3 20.8527 3ZM22.0127 17.4758C22.0135 17.7846 21.8919 18.0812 21.6745 18.3005C21.457 18.5198 21.1615 18.6439 20.8527 18.6456H2.99761C2.68846 18.6444 2.39244 18.5205 2.17459 18.3011C1.95673 18.0818 1.83486 17.7849 1.83573 17.4758V4.78824C1.83573 4.14306 2.35573 4.05647 2.99573 4.05647H20.8527C21.4927 4.05647 22.0127 4.14353 22.0127 4.78824V17.4758ZM6.82397 13.9699H3.63903C3.57625 13.9765 3.51814 14.0061 3.47592 14.0531C3.43369 14.1 3.41032 14.1609 3.41032 14.224C3.41032 14.2871 3.43369 14.348 3.47592 14.3949C3.51814 14.4419 3.57625 14.4715 3.63903 14.4781H6.82397C6.88674 14.4715 6.94485 14.4419 6.98708 14.3949C7.02931 14.348 7.05267 14.2871 7.05267 14.224C7.05267 14.1609 7.02931 14.1 6.98708 14.0531C6.94485 14.0061 6.88674 13.9765 6.82397 13.9699ZM10.584 13.9699H7.74302C7.68025 13.9765 7.62214 14.0061 7.57992 14.0531C7.53769 14.1 7.51432 14.1609 7.51432 14.224C7.51432 14.2871 7.53769 14.348 7.57992 14.3949C7.62214 14.4419 7.68025 14.4715 7.74302 14.4781H10.5858C10.6486 14.4715 10.7068 14.442 10.749 14.3951C10.7913 14.3482 10.8147 14.2873 10.8148 14.2242C10.8148 14.1611 10.7915 14.1002 10.7494 14.0532C10.7072 14.0063 10.6491 13.9766 10.5863 13.9699H10.584ZM4.2122 15.2193H3.63903C3.57625 15.2259 3.51814 15.2556 3.47592 15.3025C3.43369 15.3494 3.41032 15.4103 3.41032 15.4734C3.41032 15.5365 3.43369 15.5974 3.47592 15.6444C3.51814 15.6913 3.57625 15.7209 3.63903 15.7275H4.2122C4.27498 15.7209 4.33308 15.6913 4.37531 15.6444C4.41754 15.5974 4.44091 15.5365 4.44091 15.4734C4.44091 15.4103 4.41754 15.3494 4.37531 15.3025C4.33308 15.2556 4.27498 15.2259 4.2122 15.2193ZM6.0235 15.2193H5.10114C5.04395 15.2329 4.99301 15.2653 4.95656 15.3115C4.92011 15.3576 4.90028 15.4146 4.90028 15.4734C4.90028 15.5322 4.92011 15.5893 4.95656 15.6354C4.99301 15.6815 5.04395 15.714 5.10114 15.7275H6.02397C6.08674 15.7209 6.14485 15.6913 6.18708 15.6444C6.22931 15.5974 6.25267 15.5365 6.25267 15.4734C6.25267 15.4103 6.22931 15.3494 6.18708 15.3025C6.14485 15.2556 6.08674 15.2259 6.02397 15.2193H6.0235ZM7.85879 15.2193H6.94067C6.87789 15.2259 6.81979 15.2556 6.77756 15.3025C6.73533 15.3494 6.71197 15.4103 6.71197 15.4734C6.71197 15.5365 6.73533 15.5974 6.77756 15.6444C6.81979 15.6913 6.87789 15.7209 6.94067 15.7275H7.85926C7.92204 15.7209 7.98014 15.6913 8.02237 15.6444C8.0646 15.5974 8.08797 15.5365 8.08797 15.4734C8.08797 15.4103 8.0646 15.3494 8.02237 15.3025C7.98014 15.2556 7.92204 15.2259 7.85926 15.2193H7.85879ZM9.67008 15.2193H8.77597C8.71319 15.2259 8.65509 15.2556 8.61286 15.3025C8.57063 15.3494 8.54726 15.4103 8.54726 15.4734C8.54726 15.5365 8.57063 15.5974 8.61286 15.6444C8.65509 15.6913 8.71319 15.7209 8.77597 15.7275H9.67008C9.73285 15.7208 9.7909 15.6911 9.83304 15.6441C9.87519 15.5971 9.89844 15.5361 9.89832 15.473C9.89821 15.4099 9.87473 15.349 9.83241 15.3022C9.79009 15.2553 9.73193 15.2258 9.66914 15.2193H9.67008ZM10.423 15.2932C10.3801 15.3435 10.3565 15.4075 10.3565 15.4736C10.3565 15.5398 10.3801 15.6038 10.423 15.6541C10.4433 15.6773 10.4684 15.6959 10.4965 15.7086C10.5245 15.7214 10.555 15.7279 10.5858 15.7279C10.6167 15.7279 10.6472 15.7214 10.6752 15.7086C10.7033 15.6959 10.7284 15.6773 10.7487 15.6541C10.7916 15.6038 10.8152 15.5398 10.8152 15.4736C10.8152 15.4075 10.7916 15.3435 10.7487 15.2932C10.7278 15.2709 10.7027 15.2532 10.6747 15.2411C10.6468 15.2289 10.6167 15.2226 10.5862 15.2226C10.5557 15.2225 10.5256 15.2287 10.4976 15.2408C10.4696 15.2529 10.4444 15.2705 10.4235 15.2927L10.423 15.2932ZM4.40703 11.9915H9.90773C10.4207 11.9915 10.4946 11.9134 10.4946 11.3798V6.70776C10.4946 6.17459 10.4207 6.096 9.90773 6.096H4.40703C3.89408 6.096 3.8202 6.17412 3.8202 6.70776V11.3802C3.8202 11.9134 3.89408 11.9915 4.40703 11.9915ZM5.70114 9.69224H4.30208V8.39623H5.70114V9.69224ZM4.30208 11.3802V10.1939H5.70114V11.3802C5.70268 11.4168 5.7063 11.4533 5.71197 11.4894H4.40703C4.37865 11.4888 4.35168 11.477 4.33201 11.4565C4.31234 11.436 4.30158 11.4086 4.30208 11.3802ZM10.0131 9.69224H7.92608V8.50588C7.92583 8.49179 7.92836 8.47779 7.93353 8.46468C7.93869 8.45156 7.94638 8.4396 7.95617 8.42946C7.96596 8.41932 7.97765 8.41121 7.99058 8.40559C8.0035 8.39997 8.0174 8.39695 8.0315 8.39671H9.9082C9.94354 8.39511 9.97874 8.39134 10.0136 8.38541V9.69271L10.0131 9.69224ZM9.90773 11.4899H7.91526C7.92095 11.4537 7.92457 11.4173 7.92608 11.3807V10.1939H10.0131V11.3802C10.0134 11.3943 10.0109 11.4083 10.0057 11.4214C10.0005 11.4346 9.99284 11.4465 9.98305 11.4567C9.97326 11.4668 9.96157 11.4749 9.94865 11.4805C9.93573 11.4861 9.92182 11.4896 9.90773 11.4899ZM9.90773 6.59859C9.92182 6.59883 9.93573 6.60185 9.94865 6.60747C9.96157 6.61309 9.97326 6.6212 9.98305 6.63134C9.99284 6.64148 10.0005 6.65345 10.0057 6.66656C10.0109 6.67967 10.0134 6.69367 10.0131 6.70776V7.78494C10.0134 7.79903 10.0109 7.81303 10.0057 7.82615C10.0005 7.83926 9.99284 7.85123 9.98305 7.86137C9.97326 7.8715 9.96157 7.87961 9.94865 7.88523C9.93573 7.89085 9.92182 7.89387 9.90773 7.89412H8.03103C7.51808 7.89412 7.4442 7.97224 7.4442 8.50588V11.3807C7.44445 11.3948 7.44192 11.4088 7.43676 11.4219C7.4316 11.435 7.4239 11.447 7.41411 11.4571C7.40432 11.4673 7.39263 11.4754 7.37971 11.481C7.36679 11.4866 7.35288 11.4896 7.33879 11.4899H6.28797C6.27388 11.4896 6.25997 11.4866 6.24705 11.481C6.23412 11.4754 6.22243 11.4673 6.21264 11.4571C6.20286 11.447 6.19516 11.435 6.19 11.4219C6.18483 11.4088 6.18231 11.3948 6.18255 11.3807V6.70776C6.18231 6.69367 6.18483 6.67967 6.19 6.66656C6.19516 6.65345 6.20286 6.64148 6.21264 6.63134C6.22243 6.6212 6.23412 6.61309 6.24705 6.60747C6.25997 6.60185 6.27388 6.59883 6.28797 6.59859H9.90773ZM4.40703 6.59859H5.7115C5.70583 6.63475 5.70222 6.6712 5.70067 6.70776V7.89412H4.30208V6.70776C4.30158 6.67939 4.31234 6.65197 4.33201 6.6315C4.35168 6.61104 4.37865 6.59921 4.40703 6.59859ZM12.8597 13.6701H20.2691C20.3939 13.6701 20.5136 13.7197 20.6019 13.808C20.6902 13.8962 20.7397 14.0159 20.7397 14.1407V15.5176C20.7397 15.6425 20.6902 15.7622 20.6019 15.8504C20.5136 15.9387 20.3939 15.9882 20.2691 15.9882H12.8597C12.7349 15.9882 12.6152 15.9387 12.527 15.8504C12.4387 15.7622 12.3891 15.6425 12.3891 15.5176V14.1407C12.3891 14.0159 12.4387 13.8962 12.527 13.808C12.6152 13.7197 12.7349 13.6701 12.8597 13.6701ZM12.8531 14.1341H20.2757V15.5256H12.8531V14.1341Z" fill="#D03752"/>
</g>
<defs>
<clipPath id="clip0_852_3610">
<rect width="24" height="24" fill="white" transform="translate(0.000488281)"/>
</clipPath>
</defs>
</svg>
