<svg width="24" height="24" viewBox="0 0 24 24" fill="none" xmlns="http://www.w3.org/2000/svg">
<g clip-path="url(#clip0_852_3611)">
<path fill-rule="evenodd" clip-rule="evenodd" d="M18.5808 3.52941C19.1171 3.52816 19.6319 3.73983 20.0122 4.11793C20.3925 4.49602 20.6072 5.00962 20.609 5.54588V18.6536C20.6072 19.1899 20.3925 19.7035 20.0122 20.0816C19.6319 20.4597 19.1171 20.6714 18.5808 20.6701H5.39634C4.86007 20.6714 4.34524 20.4597 3.96494 20.0816C3.58464 19.7035 3.36997 19.1899 3.3681 18.6536V5.54588C3.36997 5.00962 3.58464 4.49602 3.96494 4.11793C4.34524 3.73983 4.86007 3.52816 5.39634 3.52941H18.5808ZM18.5808 2.52094H5.39634C4.59197 2.51944 3.81985 2.83709 3.2494 3.40418C2.67895 3.97128 2.35675 4.74152 2.35352 5.54588V18.6536C2.35675 19.458 2.67895 20.2282 3.2494 20.7953C3.81985 21.3624 4.59197 21.6801 5.39634 21.6786H18.5808C19.3852 21.6801 20.1573 21.3624 20.7277 20.7953C21.2982 20.2282 21.6204 19.458 21.6236 18.6536V5.54588C21.6204 4.74152 21.2982 3.97128 20.7277 3.40418C20.1573 2.83709 19.3852 2.51944 18.5808 2.52094ZM9.45375 0C9.65321 0 9.84818 0.0591458 10.014 0.169958C10.1799 0.28077 10.3091 0.438272 10.3855 0.622546C10.4618 0.80682 10.4818 1.00959 10.4428 1.20521C10.4039 1.40084 10.3079 1.58053 10.1668 1.72157C10.0258 1.8626 9.84612 1.95865 9.65049 1.99756C9.45487 2.03648 9.2521 2.0165 9.06783 1.94018C8.88355 1.86385 8.72605 1.73459 8.61524 1.56875C8.50443 1.4029 8.44528 1.20793 8.44528 1.00847C8.44528 0.741008 8.55153 0.484499 8.74065 0.295374C8.92978 0.106249 9.18629 0 9.45375 0ZM14.5234 0C14.7229 0 14.9178 0.0591458 15.0837 0.169958C15.2495 0.28077 15.3788 0.438272 15.4551 0.622546C15.5314 0.80682 15.5514 1.00959 15.5125 1.20521C15.4736 1.40084 15.3775 1.58053 15.2365 1.72157C15.0955 1.8626 14.9158 1.95865 14.7201 1.99756C14.5245 2.03648 14.3217 2.0165 14.1375 1.94018C13.9532 1.86385 13.7957 1.73459 13.6849 1.56875C13.5741 1.4029 13.5149 1.20793 13.5149 1.00847C13.5149 0.741008 13.6212 0.484499 13.8103 0.295374C13.9994 0.106249 14.2559 0 14.5234 0ZM2.85752 14.1176H21.1192V14.6216H2.85752V14.1176ZM5.90363 16.6386C6.20247 16.64 6.49419 16.7299 6.74198 16.8969C6.98978 17.0639 7.18254 17.3006 7.29593 17.5771C7.40932 17.8536 7.43827 18.1575 7.37912 18.4504C7.31996 18.7434 7.17536 19.0122 6.96356 19.223C6.75176 19.4338 6.48225 19.5772 6.18906 19.635C5.89586 19.6928 5.59211 19.6624 5.31616 19.5477C5.0402 19.433 4.8044 19.2392 4.63852 18.9906C4.47264 18.742 4.38411 18.4499 4.3841 18.1511C4.38435 17.9518 4.42386 17.7546 4.50038 17.5707C4.5769 17.3868 4.68893 17.2197 4.83006 17.0791C4.97118 16.9385 5.13864 16.8271 5.32285 16.7513C5.50707 16.6755 5.70442 16.6367 5.90363 16.6372V16.6386ZM5.90363 17.1426C6.10278 17.144 6.29706 17.2043 6.46197 17.316C6.62688 17.4276 6.75504 17.5856 6.83029 17.77C6.90554 17.9544 6.9245 18.1569 6.8848 18.3521C6.84509 18.5473 6.74849 18.7263 6.60718 18.8666C6.46586 19.0069 6.28616 19.1023 6.09074 19.1406C5.89531 19.179 5.6929 19.1586 5.50904 19.0821C5.32517 19.0055 5.16809 18.8763 5.05758 18.7106C4.94708 18.5449 4.88811 18.3502 4.8881 18.1511C4.88835 18.018 4.91483 17.8864 4.96602 17.7636C5.01721 17.6408 5.09211 17.5293 5.18644 17.4355C5.28076 17.3417 5.39266 17.2674 5.51573 17.2169C5.63879 17.1664 5.77061 17.1407 5.90363 17.1412V17.1426ZM18.0712 16.6372C18.37 16.6386 18.6617 16.7285 18.9095 16.8955C19.1573 17.0625 19.3501 17.2992 19.4635 17.5757C19.5769 17.8522 19.6058 18.1561 19.5466 18.449C19.4875 18.7419 19.3429 19.0108 19.1311 19.2216C18.9193 19.4324 18.6498 19.5758 18.3566 19.6336C18.0634 19.6913 17.7596 19.661 17.4837 19.5463C17.2077 19.4316 16.9719 19.2378 16.806 18.9892C16.6402 18.7406 16.5516 18.4485 16.5516 18.1496C16.5521 17.9506 16.5917 17.7535 16.6683 17.5697C16.7449 17.386 16.857 17.2191 16.9981 17.0786C17.1392 16.9382 17.3066 16.8269 17.4907 16.7512C17.6748 16.6754 17.8721 16.6367 18.0712 16.6372ZM18.0712 17.1412C18.2703 17.1426 18.4646 17.2029 18.6295 17.3146C18.7944 17.4262 18.9226 17.5842 18.9978 17.7686C19.0731 17.953 19.092 18.1555 19.0523 18.3507C19.0126 18.5458 18.916 18.7249 18.7747 18.8652C18.6334 19.0055 18.4537 19.1009 18.2583 19.1392C18.0628 19.1776 17.8604 19.1572 17.6766 19.0807C17.4927 19.0041 17.3356 18.8749 17.2251 18.7092C17.1146 18.5435 17.0556 18.3488 17.0556 18.1496C17.0561 18.0167 17.0827 17.8852 17.134 17.7626C17.1852 17.64 17.2602 17.5287 17.3545 17.435C17.4488 17.3414 17.5606 17.2672 17.6836 17.2168C17.8066 17.1664 17.9383 17.1407 18.0712 17.1412ZM8.39775 4.03341H15.577C15.7019 4.03341 15.8215 4.08299 15.9098 4.17124C15.9981 4.2595 16.0476 4.37919 16.0476 4.504V5.57929C16.0476 5.7041 15.9981 5.8238 15.9098 5.91205C15.8215 6.0003 15.7019 6.04988 15.577 6.04988H8.39775C8.27294 6.04988 8.15325 6.0003 8.06499 5.91205C7.97674 5.8238 7.92716 5.7041 7.92716 5.57929V4.504C7.92716 4.37919 7.97674 4.2595 8.06499 4.17124C8.15325 4.08299 8.27294 4.03341 8.39775 4.03341ZM8.44481 4.53741H15.53V5.54588H8.44528L8.44481 4.53741ZM2.85752 6.55388H21.1192V7.05882H2.85752V6.55388ZM6.91822 21.6786H7.93234L6.91822 24.1995H5.90316L6.91822 21.6786ZM16.0476 21.6786H17.0594L18.0735 24.1995H17.0594L16.0476 21.6786Z" fill="#D03752"/>
</g>
<defs>
<clipPath id="clip0_852_3611">
<rect width="24" height="24" fill="white" transform="translate(0.000488281)"/>
</clipPath>
</defs>
</svg>
