<svg width="24" height="24" viewBox="0 0 24 24" fill="none" xmlns="http://www.w3.org/2000/svg">
<path d="M18.0961 11.496L12.5761 5.99999C12.4801 5.90399 12.4321 5.79199 12.4321 5.66399C12.4321 5.51999 12.4801 5.39999 12.5761 5.30399C12.6721 5.19199 12.7841 5.13599 12.9121 5.13599C13.0561 5.13599 13.1761 5.18399 13.2721 5.27999L19.9921 12L13.2721 18.72C13.1761 18.816 13.0561 18.864 12.9121 18.864C12.7841 18.864 12.6721 18.816 12.5761 18.72C12.4801 18.624 12.4321 18.512 12.4321 18.384C12.4321 18.24 12.4801 18.12 12.5761 18.024L18.0961 12.504H4.51206C4.36806 12.504 4.24806 12.456 4.15206 12.36C4.05606 12.264 4.00806 12.152 4.00806 12.024C4.00806 11.88 4.05606 11.76 4.15206 11.664C4.24806 11.552 4.36806 11.496 4.51206 11.496H18.0961Z" fill="#464646"/>
</svg>
