<svg width="20" height="20" viewBox="0 0 20 20" fill="none" xmlns="http://www.w3.org/2000/svg">
<path d="M12.5898 11.74L18.2498 6.08L13.9098 1.74L8.24977 7.4L7.38977 6.52L13.0298 0.86C13.2698 0.62 13.5564 0.5 13.8898 0.5C14.2364 0.5 14.5298 0.62 14.7698 0.86L19.1298 5.22C19.3698 5.46 19.4898 5.75333 19.4898 6.1C19.4898 6.43333 19.3698 6.72 19.1298 6.96L13.4698 12.6L12.5898 11.74ZM11.7298 12.6L12.5898 13.48L6.94977 19.14C6.70977 19.38 6.41643 19.5 6.06977 19.5C5.73643 19.5 5.44977 19.38 5.20977 19.14L0.869766 14.78C0.629766 14.54 0.509766 14.2533 0.509766 13.92C0.509766 13.5733 0.629766 13.28 0.869766 13.04L6.50977 7.4L7.38977 8.26L1.72977 13.92L6.06977 18.26L11.7298 12.6ZM5.20977 13.92L13.9098 5.22L14.7698 6.08L6.06977 14.78L5.20977 13.92Z" fill="#141414"/>
</svg>
